# xmcd
#
# Track frame offsets: 
#        182
#        27032
#        48092
#        66085
#        84992
#        104495
#        124047
#        144040
#        163217
#        188220
#        212220
#        233357
#        253017
#        271265
#
# Disc length: 3906 seconds
#
# Revision: 2
# Processed by: cddbd v1.5.2PL0 Copyright (c) Steve Scherf et al.
# Submitted via: ExactAudioCopy v0.99pb5
#
DISCID=b50f400e
DTITLE=Patti LaBelle - Flame
DYEAR=1900
DGENRE=Blues
TTITLE0=Someone Like You
TTITLE1=I Like the Way It Feels
TTITLE2=You Are My Solid Ground
TTITLE3=Flame
TTITLE4=Let Me Be Your Lady
TTITLE5=Does He Love You
TTITLE6=Shoe Was On the Other Foot
TTITLE7=Addicted To You
TTITLE8=When You Talk About Love
TTITLE9=Love Is Just A Whisper Away
TTITLE10=If By Chance
TTITLE11=Let Me Be There For You
TTITLE12=You Saved My Life
TTITLE13=Don't Block The Blessings
EXTD=
EXTT0=
EXTT1=
EXTT2=
EXTT3=
EXTT4=
EXTT5=
EXTT6=
EXTT7=
EXTT8=
EXTT9=
EXTT10=
EXTT11=
EXTT12=
EXTT13=
PLAYORDER=
